<svg id="Layer_1" data-name="Layer 1" xmlns="http://www.w3.org/2000/svg" viewBox="0 0 270 280"><defs><style>.cls-1{fill:#34495e;}.cls-2{fill:#008b80;}.cls-3{fill:#f39849;}.cls-4{fill:#fff;}</style></defs><path class="cls-1" d="M37.76,138.39a22.54,22.54,0,0,1-7-1.1v-33.9h30v12A23,23,0,0,1,37.76,138.39Z" transform="translate(-14.76 -12.39)"/><path class="cls-1" d="M70.76,115.39v-12h46v12a23,23,0,0,1-46,0Z" transform="translate(-14.76 -12.39)"/><path class="cls-1" d="M126.76,115.39v-12h46v12a23,23,0,0,1-46,0Z" transform="translate(-14.76 -12.39)"/><path class="cls-1" d="M182.76,115.39v-12h46v12a23,23,0,0,1-46,0Z" transform="translate(-14.76 -12.39)"/><path class="cls-1" d="M268.76,103.39v33.9a22.54,22.54,0,0,1-7,1.1,23,23,0,0,1-23-23v-12Z" transform="translate(-14.76 -12.39)"/><path class="cls-1" d="M261.76,148.39a33,33,0,0,1-28-15.56,33,33,0,0,1-56,0,33,33,0,0,1-56,0,33,33,0,0,1-56,0,33,33,0,0,1-35,14.81v130A14.74,14.74,0,0,0,45.5,292.39H254a14.74,14.74,0,0,0,14.74-14.75v-130A32.92,32.92,0,0,1,261.76,148.39Zm-134.43,41.9v28.57h52.78a5.81,5.81,0,0,1,5.81,5.8v45.55a5.81,5.81,0,0,1-5.81,5.8h-59.9a5.8,5.8,0,0,1-5.8-5.8V234.1a9.82,9.82,0,0,0,1.7,1.43,9,9,0,0,0,4.33,1.43h6.89v24.76H173V233.15H120.21a5.8,5.8,0,0,1-5.8-5.8V181.8a5.8,5.8,0,0,1,5.8-5.8h59.9a5.81,5.81,0,0,1,5.81,5.8v8.49H186l-.09,27.91a7.85,7.85,0,0,0-1.62-1.72,7.13,7.13,0,0,0-3.32-1.43h-8V190.29Z" transform="translate(-14.76 -12.39)"/><path class="cls-2" d="M76.55,12.39l-14.95,81H16.53L37.4,25.57A18.58,18.58,0,0,1,55.25,12.39Z" transform="translate(-14.76 -12.39)"/><polygon class="cls-3" points="107.28 0 102.3 81 57.01 81 71.96 0 107.28 0"/><polygon class="cls-2" points="157.69 81 112.32 81 117.3 0 152.7 0 157.69 81"/><polygon class="cls-3" points="212.99 81 167.7 81 162.72 0 198.04 0 212.99 81"/><path class="cls-4" d="M167.46,12.39l5,81h0Z" transform="translate(-14.76 -12.39)"/><path class="cls-2" d="M283,93.39H237.92L223,12.39h21.31a18.56,18.56,0,0,1,17.84,13.18Z" transform="translate(-14.76 -12.39)"/><path class="cls-2" d="M60.76,103.39v12a23,23,0,0,1-23,23,22.54,22.54,0,0,1-7-1.1,23,23,0,0,1-16-21.9v-12Z" transform="translate(-14.76 -12.39)"/><path class="cls-3" d="M116.76,103.39v12a23,23,0,0,1-46,0v-12Z" transform="translate(-14.76 -12.39)"/><path class="cls-2" d="M172.76,103.39v12a23,23,0,0,1-46,0v-12Z" transform="translate(-14.76 -12.39)"/><path class="cls-3" d="M228.76,103.39v12a23,23,0,0,1-46,0v-12Z" transform="translate(-14.76 -12.39)"/><path class="cls-2" d="M284.76,103.39v12a23,23,0,0,1-16,21.9,22.54,22.54,0,0,1-7,1.1,23,23,0,0,1-23-23v-12Z" transform="translate(-14.76 -12.39)"/></svg>